<svg width="275" height="256" xmlns="http://www.w3.org/2000/svg" xmlns:xlink="http://www.w3.org/1999/xlink" xml:space="preserve" overflow="hidden"><g transform="translate(-247 -151)"><g><path d="M365.168 238.979 343.248 310.021 410.834 310.021 432.754 238.979ZM365.99 155 388.906 162.047 372.555 215.041 440.14 215.041 458.666 155 481.582 162.047 465.23 215.041 521 215.041 521 238.979 457.844 238.979 435.924 310.021 505.653 310.021 505.653 333.958 428.538 333.958 406.617 405 383.701 397.953 403.447 333.958 335.862 333.958 313.941 405 291.026 397.953 310.772 333.958 251 333.958 251 310.021 318.158 310.021 340.078 238.979 266.346 238.979 266.346 215.041 347.464 215.041Z" fill="#000000" fill-rule="evenodd" fill-opacity="1"/></g></g></svg>